<?xml version="1.0" standalone="no"?>
<!DOCTYPE svg PUBLIC "-//W3C//DTD SVG 20010904//EN"
 "http://www.w3.org/TR/2001/REC-SVG-20010904/DTD/svg10.dtd">
<svg version="1.0" xmlns="http://www.w3.org/2000/svg"
 width="500.000000pt" height="500.000000pt" viewBox="0 0 500.000000 500.000000"
 preserveAspectRatio="xMidYMid meet">

<g transform="translate(0.000000,500.000000) scale(0.100000,-0.100000)"
fill="#000000" stroke="none">
<path d="M1024 2861 c-40 -10 -72 -33 -95 -68 -17 -26 -19 -52 -19 -301 0
-305 1 -313 67 -354 l38 -23 365 0 c330 0 368 2 397 18 44 24 65 58 77 128
l11 58 85 -64 c47 -36 93 -65 103 -65 16 0 17 21 17 300 0 279 -1 300 -17 300
-10 0 -56 -29 -103 -65 l-85 -64 -11 57 c-13 71 -25 94 -66 124 -33 23 -34 23
-383 25 -192 1 -364 -2 -381 -6z"/>
<path d="M2808 2779 c-10 -5 -18 -17 -18 -26 0 -9 -8 -25 -17 -36 -13 -15 -15
-21 -5 -24 8 -3 12 -26 12 -69 l0 -64 30 0 30 0 0 65 c0 51 3 65 15 65 8 0 15
7 15 15 0 8 -7 15 -15 15 -8 0 -15 7 -15 15 0 8 6 15 14 15 21 0 31 21 15 31
-18 11 -40 11 -61 -2z"/>
<path d="M2215 2746 c-56 -56 -35 -162 36 -180 49 -12 89 -1 89 25 0 17 -4 19
-33 14 -44 -9 -67 13 -67 64 0 47 18 64 62 59 28 -2 34 1 36 20 3 20 0 22 -48
22 -40 0 -56 -5 -75 -24z"/>
<path d="M2435 2723 c-38 -9 -55 -34 -55 -79 0 -53 28 -84 77 -84 47 0 73 29
73 83 0 59 -40 93 -95 80z m40 -78 c0 -33 -3 -40 -20 -40 -15 0 -21 8 -23 28
-5 39 5 59 25 55 14 -2 18 -13 18 -43z"/>
<path d="M2646 2715 c-15 -8 -28 -10 -31 -4 -4 5 -15 9 -26 9 -17 0 -19 -7
-19 -80 0 -78 1 -80 24 -80 21 0 24 5 28 55 5 64 19 85 43 65 10 -8 15 -30 15
-66 0 -51 1 -54 25 -54 24 0 25 2 25 63 0 87 -30 120 -84 92z"/>
<path d="M2940 2721 c-52 -14 -66 -96 -25 -137 20 -20 33 -25 68 -22 30 2 43
8 45 20 3 14 -4 17 -33 16 -22 -1 -40 4 -46 13 -7 11 1 15 41 17 48 3 50 4 50
32 0 27 -22 60 -40 60 -5 0 -14 2 -22 4 -7 2 -24 1 -38 -3z m58 -48 c2 -8 -6
-13 -22 -13 -17 0 -26 5 -26 16 0 19 41 16 48 -3z"/>
<path d="M3158 2716 c-16 -9 -30 -11 -33 -5 -4 5 -15 9 -26 9 -17 0 -19 -7
-19 -80 0 -79 0 -80 25 -80 23 0 25 4 25 44 0 46 18 76 46 76 8 0 14 10 14 25
0 29 2 29 -32 11z"/>
<path d="M3273 2723 c-56 -11 -73 -106 -26 -143 34 -26 106 -25 111 2 3 13 -6
17 -39 20 -63 5 -63 28 0 28 49 0 51 1 51 28 0 45 -45 75 -97 65z m47 -48 c0
-9 -9 -15 -25 -15 -24 0 -32 10 -18 23 12 13 43 7 43 -8z"/>
<path d="M3485 2720 c-11 -4 -32 -5 -47 -3 l-28 6 0 -82 c0 -80 0 -81 25 -81
23 0 25 3 25 48 0 51 19 90 38 78 7 -4 12 -33 12 -67 l0 -59 31 0 31 0 -4 70
c-2 38 -8 74 -13 79 -16 15 -49 20 -70 11z"/>
<path d="M3664 2723 c-59 -11 -81 -107 -35 -145 33 -26 95 -22 99 7 2 17 -3
20 -30 20 -30 0 -33 3 -36 34 -4 38 11 53 44 45 16 -4 23 0 27 15 3 14 0 21
-8 21 -7 0 -19 2 -27 4 -7 2 -23 1 -34 -1z"/>
<path d="M3825 2722 c-37 -7 -55 -33 -55 -76 0 -23 4 -46 8 -52 26 -40 132
-46 132 -9 0 9 -15 15 -42 17 -63 5 -62 28 1 28 46 0 51 2 51 23 0 48 -43 79
-95 69z m43 -49 c2 -8 -6 -13 -22 -13 -25 0 -33 10 -19 24 10 10 36 3 41 -11z"/>
<path d="M2202 2313 l2 -108 6 100 c6 112 2 113 57 -27 14 -38 29 -68 33 -68
4 0 22 39 40 88 18 48 36 91 40 95 4 5 5 -35 2 -87 -3 -68 -1 -96 7 -96 7 0
11 33 11 106 0 92 -2 105 -16 102 -10 -2 -28 -35 -47 -85 -17 -46 -34 -83 -37
-83 -3 0 -19 37 -36 83 -20 52 -37 83 -47 85 -15 3 -17 -9 -15 -105z"/>
<path d="M3087 2377 c-10 -15 -13 -27 -7 -27 6 0 10 -25 10 -58 0 -32 5 -63
12 -70 15 -15 58 -16 58 -1 0 5 -5 7 -10 4 -23 -14 -40 17 -40 71 0 47 3 54
19 54 11 0 23 5 26 10 3 6 -5 10 -19 10 -15 0 -26 6 -28 17 -2 14 -7 12 -21
-10z"/>
<path d="M2584 2358 c-5 -8 0 -9 16 -5 30 8 60 -9 60 -33 0 -16 -7 -20 -33
-20 -44 0 -70 -20 -65 -50 5 -34 31 -47 67 -33 21 8 32 8 40 0 8 -8 11 9 11
59 0 41 -5 75 -12 82 -15 15 -75 16 -84 0z m76 -88 c0 -24 -41 -53 -64 -44
-19 7 -22 50 -3 57 6 3 24 6 40 6 20 1 27 -4 27 -19z"/>
<path d="M2848 2359 c-33 -18 -21 -48 27 -71 25 -12 45 -28 45 -35 0 -19 -32
-32 -64 -26 -20 4 -27 2 -22 -6 11 -17 72 -13 91 5 24 25 14 46 -33 72 -23 13
-42 29 -42 37 0 18 26 26 57 19 18 -5 24 -3 19 5 -9 14 -55 14 -78 0z"/>
<path d="M3314 2349 c-28 -31 -25 -96 5 -120 25 -20 67 -25 91 -9 11 7 2 10
-32 10 -36 0 -50 4 -58 19 -18 35 -12 41 45 41 51 0 55 2 55 23 0 52 -70 76
-106 36z m67 1 c10 -6 19 -20 19 -30 0 -17 -7 -20 -39 -20 -48 0 -58 13 -31
40 23 23 25 23 51 10z"/>
<path d="M3570 2290 c0 -47 4 -80 10 -80 6 0 10 24 10 53 0 57 19 87 53 87 9
0 17 5 17 10 0 16 -32 12 -52 -7 -17 -15 -18 -15 -18 0 0 10 -4 17 -10 17 -6
0 -10 -33 -10 -80z"/>
<path d="M3808 2359 c-33 -18 -21 -48 27 -71 25 -12 45 -28 45 -35 0 -19 -32
-32 -64 -26 -20 4 -27 2 -22 -6 11 -17 72 -13 91 5 24 25 14 46 -33 72 -23 13
-42 29 -42 37 0 18 26 26 57 19 18 -5 24 -3 19 5 -9 14 -55 14 -78 0z"/>
</g>
</svg>
